<svg id="レイヤー_1" data-name="レイヤー 1" xmlns="http://www.w3.org/2000/svg" viewBox="0 0 1401.65 102.72"><defs><style>.cls-1{fill:#a48b78;}.cls-2{fill:#fff;}</style></defs><path class="cls-1" d="M30.07,73.16c0,11.81,0,13.36,1.43,15.74s4.53,2.39,9.07,2.87c.83.12,1.07.36,1.07,1.55s-.24,1.55-1.07,1.55c-5.13-.36-11.22-.48-16-.48s-10.85.12-15.39.48c-.83,0-1.07-.36-1.07-1.55s.24-1.43,1.07-1.55c3.94-.48,7.16-.48,8.59-2.87,1.43-2.62,1.43-7.87,1.43-15.74V30.81c0-11.33,0-12.65-1.31-15.27-1.31-2.27-4.89-2.39-9.3-2.86-.72-.12-1-.12-1-1.44,0-1.55.24-1.9,1-1.9,4.89.47,11.21.71,16,.71s10.62-.24,15.27-.71c1,0,1.19.35,1.19,1.79s-.23,1.43-1.19,1.55c-4.17.47-6.8.59-8.23,2.86-1.55,2.86-1.55,8-1.55,15.27v18c3.7-3.1,6.32-5.61,9.54-8.83L52.73,26.75c7.64-7.63,9-9.66,8.36-12-.36-1.43-3.7-1.67-6-1.9-.83-.12-1.07-.12-1.07-1.56s.24-1.55,1.07-1.55c4.41.36,9.07.36,13.48.36,4.06,0,9.42-.24,14-.71.83,0,1,.35,1,1.79s-.24,1.43-1,1.55a23,23,0,0,0-10.14,3.58C69,18.4,65.5,21,58,28.18L46.65,39c-2.74,2.62-4.65,4.29-6.8,6.44,7.28,8.47,16,18.61,28.87,33.16,5.49,6.21,8.23,9.07,11.81,11.22,2.15,1.19,4.77,1.55,7.75,1.91.72.12,1,.36,1,1.55s-.24,1.55-1.07,1.55c-4.06-.36-7.64-.48-10.86-.48-3.58,0-6.44,0-10,.12-3.22-4.29-6.09-8-10.14-12.76C47.49,70.53,38.06,59.44,30.07,50.13Z"/><path class="cls-1" d="M94,35.7c-.6.36-1.31.36-2.15-.6-1-1.19-.71-1.79-.12-2.14,4.3-3,7.52-6.68,7.52-9.91,0-1.55-1.08-2.5-2.39-3.22C95.32,19,92.7,18.4,92.7,15.3c0-3.34,3.58-7.87,7.75-7.87,2.63,0,6.92,3.7,6.92,9.06C107.37,20.67,105.46,27.59,94,35.7Z"/><path class="cls-1" d="M130.63,69.94c-8.47-4.06-13.12-6.44-13.12-16.11,0-6.44,5.13-13.84,16.94-13.84a37.94,37.94,0,0,1,8,1.08,37.79,37.79,0,0,0,7.52.24c.24,3.93.59,9.18,1.07,13.12,0,.71-.24,1-1.31,1.07s-1.2-.24-1.55-.83c-2.51-6.33-7.16-11.46-13.48-11.46-6.09,0-9.07,3.94-9.07,8.47,0,4.18,2.63,6.09,9.78,9.31l3.94,1.79c9.31,4.17,14.55,7.75,14.55,17.06,0,8.11-5.72,16.82-19.8,16.82a37.48,37.48,0,0,1-15.39-3.22c-1-3.46-2-8.71-2.62-12.53,0-.59.12-.83,1.31-1,1-.12,1.19-.12,1.43.71,3.34,7.4,9.54,12.65,15.75,12.65,6.92,0,10.5-4.65,10.5-10.5,0-5.49-3.58-7.63-10.26-10.86Z"/><path class="cls-1" d="M226.3,73.16c0,11.81-.12,13.48,1.31,15.74s4.9,2.39,9.43,2.87c.83.12,1.07.36,1.07,1.55s-.24,1.55-1.19,1.55c-5.13-.24-11.33-.48-16.34-.48-4.66,0-10.74.24-15.39.48-.72,0-1-.36-1-1.55s.24-1.43,1-1.55c4.05-.48,7.16-.48,8.59-2.87,1.67-2.62,1.55-7.75,1.55-15.74V30.81c0-11.33,0-12.65-1.43-15.27-1.32-2.27-4.78-2.39-9.31-2.86-.71-.12-1-.24-1-1.55s.24-1.79,1-1.79c5,.35,11.33.71,16,.71,5,0,11.09-.36,15.86-.71.84,0,1.08.35,1.08,1.9,0,1.2-.36,1.32-1.08,1.44-4.17.47-7.27.59-8.71,2.86-1.55,2.74-1.43,8-1.43,15.27Z"/><path class="cls-1" d="M264.24,22l.47,51.3c.12,7.51.6,13,2.15,15.39s5.13,2.74,9.07,3.22c.83,0,.95.24.95,1.43s-.24,1.43-.95,1.43c-4.77-.24-9.43-.36-13.72-.36s-9.78.12-13.84.36c-1,0-1.19-.24-1.19-1.31s.24-1.43,1.07-1.55c3.58-.48,6.68-.84,8.23-3.34s2.27-8,2.39-15.27l.71-42.59c.12-7.52-.35-12.17-1.9-14.43s-5.49-3-9.79-3.46c-.95-.12-1.19-.36-1.19-1.56,0-1.55.24-1.9,1.19-1.9,4.06.12,8.47.35,11.46.35,3.22,0,6.2,0,11.92-.12A158.4,158.4,0,0,0,280.46,24l27.2,39.84c4.06,5.85,7.4,10.86,11.09,16.7V65.76l-.12-35.07c0-6.8-.83-12.41-2.38-14.91s-5-2.63-8.83-3.1c-.95-.12-1.19-.24-1.19-1.55,0-1.56.24-1.79,1.07-1.79,4.42.23,9.19.47,13.48.47s9.66-.24,13.48-.47c1,0,1.19.23,1.19,1.79,0,1.19-.23,1.43-1.19,1.55-3.58.47-6.56.71-8,3.1C324.72,18.4,324.12,24,324,30.69l-.71,42.59c-.12,8,0,13.83.23,20.16-5.84,3.22-6.08,3.34-6.44,3.34a1.22,1.22,0,0,1-.95-.6c-3.7-6.08-6.44-10.14-13.6-20.52L265.67,22Z"/><path class="cls-1" d="M375.06,30.81c0-10.86-.12-12.65-1.31-15-1.19-2.15-4.65-2.15-7.64-2.15-5.48,0-10.73.95-13.95,3.7-3.46,2.5-6.45,8.11-8,12.29-.23.71-.59,1.07-1.79.83s-1.31-.6-1.31-1.43c.84-6,1.67-13.6,2.15-19.68,13.12.59,25.29.59,37.58.59s24.81,0,37.93-.59c.48,6.08,1.31,13.71,2,19.68,0,.83-.12,1.19-1.19,1.43-1.44.24-1.67-.12-1.91-.83-1.43-4.18-4.3-9.67-7.88-12.29-3.1-2.75-8.35-3.7-14.31-3.7-3,0-6.08-.24-7.75,2.39s-1.56,8-1.56,14.79V73.16c0,11.81-.12,13.12,1.32,15.63,1.31,2.26,5.37,2.38,9.66,2.86.83.12,1.07.36,1.07,1.55s-.24,1.67-1.07,1.67c-5-.36-11.69-.48-16.46-.48s-11.1.12-15.63.48c-.84,0-1.07-.36-1.07-1.55s.23-1.55,1.07-1.67c3.94-.48,7.4-.6,8.71-2.86,1.43-2.75,1.31-7.76,1.31-15.63Z"/><path class="cls-1" d="M450.21,73.16c0,5-.12,11.57,1.67,14.31,1.91,3.1,6.45,3.22,11.81,3.22,11.81,0,17.06-2,20.76-4.89s6.8-7.75,9.19-12c.35-.71.59-1.07,1.79-.71,1.43.48,1.43.95,1.19,1.67a126.66,126.66,0,0,1-6.2,20.16c-10.26-.36-20.4-.48-30.07-.48-10.14,0-21.11.12-31.25.48-.72,0-1-.36-1-1.55s.24-1.43,1-1.55c4.17-.48,7-.6,8.47-2.87C439,86.28,439,81,439,73.16V30.81c0-11.33,0-12.77-1.31-15.39-1.31-2.15-4.65-2.27-9.19-2.74-.83-.12-1.07-.24-1.07-1.44,0-1.55.24-1.9,1.07-1.9,9.9.59,20.52.59,30.3.59,9.43,0,19.21,0,29.47-.59.48,6.08,1.19,13.36,2,19.32.12.72-.12,1.19-1.08,1.43-1.43.24-1.79-.12-2-.83-1.43-4.3-4.65-9.55-7.75-11.81-3.22-2.87-8.35-3.82-17.77-3.82-4.54,0-8.59.24-10.26,3-1.43,2.39-1.2,7.88-1.2,14.2V47.87c1.91.12,4.78.12,7.4.12,7.52,0,13.24-.6,15.39-2.51,2.74-1.91,3.46-4.89,3.94-7.75.11-.72.23-1.08,1.43-1.08,1.55,0,1.67.36,1.67,1.08-.12,4.17-.24,8-.24,12.05,0,4.41.12,9.18.24,13.48,0,.83-.12,1.19-1.67,1.19-1.08,0-1.32-.48-1.43-1.19-.48-2.63-1.44-7-4.18-8.83-2.15-1.43-7.75-2.51-15.15-2.51-2.62,0-5.49,0-7.4.12Z"/><path class="cls-1" d="M526,73c0,11.81.12,13.48,1.32,15.86,1.43,2.39,4.77,2.39,9.18,2.87,1,.12,1.19.36,1.19,1.67,0,1.07-.23,1.43-1.19,1.43-5.13-.24-11-.48-15.86-.48s-10.86.24-15.51.48c-1,0-1.19-.36-1.19-1.43,0-1.31.23-1.55,1.19-1.67,4.05-.48,7.39-.6,8.71-2.87,1.43-2.62,1.43-8,1.43-15.86V30.69c0-11.33,0-12.65-1.31-15.15s-5.49-2.51-10-3c-.72-.12-1-.24-1-1.43,0-1.56.24-1.79,1-1.79,5.12.23,11.33.47,16.1.47,4.29,0,11.81-.59,19.56-.59,21.83,0,30.54,9.54,30.54,21.71,0,8.83-5.72,17.53-19.2,21.23,4.77,9.19,10.26,19,16.58,29,2.62,4.29,4.77,7.52,7.16,8.95,2,1.07,4.17,1.31,7.27,1.67.72.12,1,.36,1,1.55s-.36,1.55-1.08,1.55c-4.41-.24-7.87-.48-11.33-.48-3.1,0-5.37,0-9,.12a80,80,0,0,0-4.41-9.18c-5.85-10.5-11.57-20.88-17.3-31.38-1.43.12-3.58.24-5.25.24-3,0-5.72-.12-8.59-.36Zm0-23.26a66.24,66.24,0,0,0,8.59.59c16.94,0,23.27-8.47,23.27-18.73,0-11.69-6.45-18.37-20.76-18.37-3.94,0-8-.12-9.54,2.27S526,24.13,526,30.69Z"/><path class="cls-1" d="M601.83,22l.48,51.3c.12,7.51.6,13,2.15,15.39s5.13,2.74,9.06,3.22c.84,0,1,.24,1,1.43s-.24,1.43-1,1.43c-4.77-.24-9.42-.36-13.71-.36s-9.79.12-13.84.36c-1,0-1.19-.24-1.19-1.31s.23-1.43,1.07-1.55c3.58-.48,6.68-.84,8.23-3.34s2.27-8,2.39-15.27l.71-42.59c.12-7.52-.36-12.17-1.91-14.43s-5.48-3-9.78-3.46c-1-.12-1.19-.36-1.19-1.56,0-1.55.24-1.9,1.19-1.9,4.06.12,8.47.35,11.45.35,3.22,0,6.21,0,11.93-.12A158.4,158.4,0,0,0,618.06,24l27.2,39.84c4,5.85,7.39,10.86,11.09,16.7V65.76l-.12-35.07c0-6.8-.83-12.41-2.38-14.91s-5-2.63-8.83-3.1c-1-.12-1.19-.24-1.19-1.55,0-1.56.23-1.79,1.07-1.79,4.41.23,9.19.47,13.48.47s9.66-.24,13.48-.47c.95,0,1.19.23,1.19,1.79,0,1.19-.24,1.43-1.19,1.55-3.58.47-6.56.71-8,3.1-1.55,2.62-2.15,8.23-2.27,14.91l-.72,42.59c-.11,8,0,13.83.24,20.16-5.84,3.22-6.08,3.34-6.44,3.34a1.21,1.21,0,0,1-.95-.6C650,90.1,647.29,86,640.13,75.66L603.27,22Z"/><path class="cls-1" d="M722.32,61.82c-4.05-.23-9.18-.47-13.72-.47-4.89,0-9.66.24-14.91.47L688.92,75c-2.51,6.8-3,10.85-1.91,13.48,1.07,2.38,5.13,2.86,9.54,3.34.72.12,1.08.36,1.08,1.55s-.24,1.55-1.2,1.55c-4.41-.24-10.25-.36-14.55-.36s-8.35,0-12.17.36c-1,0-1.19-.24-1.19-1.55s.24-1.43,1.19-1.55a11,11,0,0,0,6.8-3.1c2.27-2.39,4.42-7.28,7.16-14.2l14.2-37.82c5.84-15.86,7-19.2,8.82-25.29l7.64-3.69a1.15,1.15,0,0,1,1.31.95c2.27,7.4,4.18,13.36,9.42,28.63l13.48,38.17c2.39,6.8,4.06,11,5.85,13.37s4.06,2.62,8.35,3c1.07.12,1.31.36,1.31,1.55s-.24,1.55-1.31,1.55c-4.77-.24-11.21-.36-16-.36-4.54,0-10.86.12-15.63.36-.84,0-1.08-.24-1.08-1.55s.24-1.43,1.08-1.55c3.93-.36,7.75-.6,8.59-3,.95-2.63,0-6-2.27-12.29ZM714,37.37c-2.74-7.75-4.06-11.93-5.61-16.34-1.55,4.41-3.1,8.7-5.84,16.22l-7.16,19.8c4.18.24,8.83.24,13.24.24,3.94,0,8.47,0,12.17-.24Z"/><path class="cls-1" d="M780.3,30.81c0-10.86-.12-12.65-1.32-15-1.19-2.15-4.65-2.15-7.63-2.15-5.49,0-10.74.95-14,3.7-3.46,2.5-6.44,8.11-8,12.29-.24.71-.6,1.07-1.79.83s-1.31-.6-1.31-1.43c.83-6,1.67-13.6,2.14-19.68,13.13.59,25.3.59,37.58.59s24.82,0,37.94-.59c.48,6.08,1.31,13.71,2,19.68,0,.83-.12,1.19-1.2,1.43-1.43.24-1.67-.12-1.91-.83-1.43-4.18-4.29-9.67-7.87-12.29-3.1-2.75-8.35-3.7-14.31-3.7-3,0-6.09-.24-7.76,2.39s-1.55,8-1.55,14.79V73.16c0,11.81-.12,13.12,1.31,15.63,1.32,2.26,5.37,2.38,9.67,2.86.83.12,1.07.36,1.07,1.55s-.24,1.67-1.07,1.67c-5-.36-11.69-.48-16.47-.48s-11.09.12-15.62.48c-.84,0-1.08-.36-1.08-1.55s.24-1.55,1.08-1.67c3.93-.48,7.39-.6,8.7-2.86C780.42,86,780.3,81,780.3,73.16Z"/><path class="cls-1" d="M856.4,73.16c0,11.81-.12,13.48,1.32,15.74s4.89,2.39,9.42,2.87c.84.12,1.07.36,1.07,1.55S868,94.87,867,94.87c-5.13-.24-11.33-.48-16.34-.48-4.65,0-10.74.24-15.39.48-.72,0-.95-.36-.95-1.55s.23-1.43.95-1.55c4.06-.48,7.16-.48,8.59-2.87,1.67-2.62,1.55-7.75,1.55-15.74V30.81c0-11.33,0-12.65-1.43-15.27-1.31-2.27-4.77-2.39-9.31-2.86-.71-.12-1-.24-1-1.55s.24-1.79,1-1.79c5,.35,11.34.71,16,.71,5,0,11.09-.36,15.86-.71.84,0,1.08.35,1.08,1.9,0,1.2-.36,1.32-1.08,1.44-4.17.47-7.27.59-8.7,2.86-1.56,2.74-1.44,8-1.44,15.27Z"/><path class="cls-1" d="M967.35,51.8c0,26-18.73,45-44.26,45S879,77.81,879,52,897.56,7.43,923.09,7.43,967.35,25.8,967.35,51.8Zm-75.28,0c0,24.82,12.53,40.8,31,40.8s31-16,31-40.44c0-24.69-12.88-40.68-31-40.68S892.07,27.71,892.07,51.8Z"/><path class="cls-1" d="M991.08,22l.48,51.3c.12,7.51.6,13,2.15,15.39s5.13,2.74,9.06,3.22c.84,0,1,.24,1,1.43s-.24,1.43-1,1.43c-4.77-.24-9.42-.36-13.71-.36s-9.79.12-13.84.36c-1,0-1.2-.24-1.2-1.31s.24-1.43,1.08-1.55c3.58-.48,6.68-.84,8.23-3.34s2.27-8,2.39-15.27l.71-42.59c.12-7.52-.36-12.17-1.91-14.43s-5.49-3-9.78-3.46c-1-.12-1.19-.36-1.19-1.56,0-1.55.24-1.9,1.19-1.9,4.06.12,8.47.35,11.45.35,3.22,0,6.21,0,11.93-.12A156.24,156.24,0,0,0,1007.31,24l27.2,39.84c4,5.85,7.39,10.86,11.09,16.7V65.76l-.12-35.07c0-6.8-.83-12.41-2.38-14.91s-5-2.63-8.83-3.1c-1-.12-1.2-.24-1.2-1.55,0-1.56.24-1.79,1.08-1.79,4.41.23,9.18.47,13.48.47s9.66-.24,13.48-.47c1,0,1.19.23,1.19,1.79,0,1.19-.24,1.43-1.19,1.55-3.58.47-6.56.71-8,3.1-1.56,2.62-2.15,8.23-2.27,14.91l-.72,42.59c-.12,8,0,13.83.24,20.16-5.84,3.22-6.08,3.34-6.44,3.34a1.19,1.19,0,0,1-1-.6c-3.7-6.08-6.45-10.14-13.6-20.52L992.52,22Z"/><path class="cls-1" d="M1118.73,61.82c-4.06-.23-9.19-.47-13.72-.47-4.89,0-9.66.24-14.91.47L1085.33,75c-2.51,6.8-3,10.85-1.91,13.48,1.07,2.38,5.13,2.86,9.54,3.34.72.12,1.07.36,1.07,1.55s-.24,1.55-1.19,1.55c-4.41-.24-10.26-.36-14.55-.36s-8.35,0-12.17.36c-.95,0-1.19-.24-1.19-1.55s.24-1.43,1.19-1.55a11,11,0,0,0,6.8-3.1c2.27-2.39,4.41-7.28,7.16-14.2l14.19-37.82c5.85-15.86,7-19.2,8.83-25.29l7.63-3.69a1.16,1.16,0,0,1,1.32.95c2.26,7.4,4.17,13.36,9.42,28.63L1135,75.42c2.39,6.8,4.06,11,5.85,13.37s4,2.62,8.35,3c1.07.12,1.31.36,1.31,1.55s-.24,1.55-1.31,1.55c-4.77-.24-11.22-.36-16-.36-4.53,0-10.85.12-15.63.36-.83,0-1.07-.24-1.07-1.55s.24-1.43,1.07-1.55c3.94-.36,7.76-.6,8.59-3,1-2.63,0-6-2.26-12.29Zm-8.35-24.45c-2.75-7.75-4.06-11.93-5.61-16.34-1.55,4.41-3.1,8.7-5.84,16.22l-7.16,19.8c4.17.24,8.83.24,13.24.24,3.93,0,8.47,0,12.17-.24Z"/><path class="cls-1" d="M1183,73.16c0,5.13-.12,11.57,1.67,14.31,1.91,3.1,6.2,3.22,11.57,3.22,11.93,0,17.06-2.38,20.75-5s6.57-7.63,9-11.93c.36-.83.6-1.07,1.91-.71s1.43.95,1.19,1.67a155.8,155.8,0,0,1-6.2,20.16c-10.38-.36-20.52-.48-30.18-.48-10,0-21,.12-31.14.48-.71,0-1-.36-1-1.55s.24-1.43,1-1.55c4.18-.48,7.4-.6,8.83-2.87,1.55-2.62,1.43-7.87,1.43-15.74V30.81c0-11.33,0-12.77-1.31-15.27-1.31-2.27-4.65-2.39-9.19-2.86-.83-.12-1.07-.24-1.07-1.44,0-1.55.24-1.9,1.07-1.9,4.9.35,11,.71,16,.71,4.77,0,11-.36,15.75-.71,1,0,1.19.35,1.19,1.9,0,1.2-.24,1.32-1.19,1.44-4.06.47-7.28.59-8.59,2.86-1.43,2.62-1.43,8-1.43,15.27Z"/><path class="cls-2" d="M30.07,73.16c0,11.81,0,13.36,1.43,15.74s4.53,2.39,9.07,2.87c.83.12,1.07.36,1.07,1.55s-.24,1.55-1.07,1.55c-5.13-.36-11.22-.48-16-.48s-10.85.12-15.39.48c-.83,0-1.07-.36-1.07-1.55s.24-1.43,1.07-1.55c3.94-.48,7.16-.48,8.59-2.87,1.43-2.62,1.43-7.87,1.43-15.74V30.81c0-11.33,0-12.65-1.31-15.27-1.31-2.27-4.89-2.39-9.3-2.86-.72-.12-1-.12-1-1.44,0-1.55.24-1.9,1-1.9,4.89.47,11.21.71,16,.71s10.62-.24,15.27-.71c1,0,1.19.35,1.19,1.79s-.23,1.43-1.19,1.55c-4.17.47-6.8.59-8.23,2.86-1.55,2.86-1.55,8-1.55,15.27v18c3.7-3.1,6.32-5.61,9.54-8.83L52.73,26.75c7.64-7.63,9-9.66,8.36-12-.36-1.43-3.7-1.67-6-1.9-.83-.12-1.07-.12-1.07-1.56s.24-1.55,1.07-1.55c4.41.36,9.07.36,13.48.36,4.06,0,9.42-.24,14-.71.83,0,1,.35,1,1.79s-.24,1.43-1,1.55a23,23,0,0,0-10.14,3.58C69,18.4,65.5,21,58,28.18L46.65,39c-2.74,2.62-4.65,4.29-6.8,6.44,7.28,8.47,16,18.61,28.87,33.16,5.49,6.21,8.23,9.07,11.81,11.22,2.15,1.19,4.77,1.55,7.75,1.91.72.12,1,.36,1,1.55s-.24,1.55-1.07,1.55c-4.06-.36-7.64-.48-10.86-.48-3.58,0-6.44,0-10,.12-3.22-4.29-6.09-8-10.14-12.76C47.49,70.53,38.06,59.44,30.07,50.13Z"/><path class="cls-2" d="M94,35.7c-.6.36-1.31.36-2.15-.6-1-1.19-.71-1.79-.12-2.14,4.3-3,7.52-6.68,7.52-9.91,0-1.55-1.08-2.5-2.39-3.22C95.32,19,92.7,18.4,92.7,15.3c0-3.34,3.58-7.87,7.75-7.87,2.63,0,6.92,3.7,6.92,9.06C107.37,20.67,105.46,27.59,94,35.7Z"/><path class="cls-2" d="M130.63,69.94c-8.47-4.06-13.12-6.44-13.12-16.11,0-6.44,5.13-13.84,16.94-13.84a37.94,37.94,0,0,1,8,1.08,37.79,37.79,0,0,0,7.52.24c.24,3.93.59,9.18,1.07,13.12,0,.71-.24,1-1.31,1.07s-1.2-.24-1.55-.83c-2.51-6.33-7.16-11.46-13.48-11.46-6.09,0-9.07,3.94-9.07,8.47,0,4.18,2.63,6.09,9.78,9.31l3.94,1.79c9.31,4.17,14.55,7.75,14.55,17.06,0,8.11-5.72,16.82-19.8,16.82a37.48,37.48,0,0,1-15.39-3.22c-1-3.46-2-8.71-2.62-12.53,0-.59.12-.83,1.31-1,1-.12,1.19-.12,1.43.71,3.34,7.4,9.54,12.65,15.75,12.65,6.92,0,10.5-4.65,10.5-10.5,0-5.49-3.58-7.63-10.26-10.86Z"/><path class="cls-2" d="M226.3,73.16c0,11.81-.12,13.48,1.31,15.74s4.9,2.39,9.43,2.87c.83.12,1.07.36,1.07,1.55s-.24,1.55-1.19,1.55c-5.13-.24-11.33-.48-16.34-.48-4.66,0-10.74.24-15.39.48-.72,0-1-.36-1-1.55s.24-1.43,1-1.55c4.05-.48,7.16-.48,8.59-2.87,1.67-2.62,1.55-7.75,1.55-15.74V30.81c0-11.33,0-12.65-1.43-15.27-1.32-2.27-4.78-2.39-9.31-2.86-.71-.12-1-.24-1-1.55s.24-1.79,1-1.79c5,.35,11.33.71,16,.71,5,0,11.09-.36,15.86-.71.84,0,1.08.35,1.08,1.9,0,1.2-.36,1.32-1.08,1.44-4.17.47-7.27.59-8.71,2.86-1.55,2.74-1.43,8-1.43,15.27Z"/><path class="cls-2" d="M264.24,22l.47,51.3c.12,7.51.6,13,2.15,15.39s5.13,2.74,9.07,3.22c.83,0,.95.24.95,1.43s-.24,1.43-.95,1.43c-4.77-.24-9.43-.36-13.72-.36s-9.78.12-13.84.36c-1,0-1.19-.24-1.19-1.31s.24-1.43,1.07-1.55c3.58-.48,6.68-.84,8.23-3.34s2.27-8,2.39-15.27l.71-42.59c.12-7.52-.35-12.17-1.9-14.43s-5.49-3-9.79-3.46c-.95-.12-1.19-.36-1.19-1.56,0-1.55.24-1.9,1.19-1.9,4.06.12,8.47.35,11.46.35,3.22,0,6.2,0,11.92-.12A158.4,158.4,0,0,0,280.46,24l27.2,39.84c4.06,5.85,7.4,10.86,11.09,16.7V65.76l-.12-35.07c0-6.8-.83-12.41-2.38-14.91s-5-2.63-8.83-3.1c-.95-.12-1.19-.24-1.19-1.55,0-1.56.24-1.79,1.07-1.79,4.42.23,9.19.47,13.48.47s9.66-.24,13.48-.47c1,0,1.19.23,1.19,1.79,0,1.19-.23,1.43-1.19,1.55-3.58.47-6.56.71-8,3.1C324.72,18.4,324.12,24,324,30.69l-.71,42.59c-.12,8,0,13.83.23,20.16-5.84,3.22-6.08,3.34-6.44,3.34a1.22,1.22,0,0,1-.95-.6c-3.7-6.08-6.44-10.14-13.6-20.52L265.67,22Z"/><path class="cls-2" d="M375.06,30.81c0-10.86-.12-12.65-1.31-15-1.19-2.15-4.65-2.15-7.64-2.15-5.48,0-10.73.95-13.95,3.7-3.46,2.5-6.45,8.11-8,12.29-.23.71-.59,1.07-1.79.83s-1.31-.6-1.31-1.43c.84-6,1.67-13.6,2.15-19.68,13.12.59,25.29.59,37.58.59s24.81,0,37.93-.59c.48,6.08,1.31,13.71,2,19.68,0,.83-.12,1.19-1.19,1.43-1.44.24-1.67-.12-1.91-.83-1.43-4.18-4.3-9.67-7.88-12.29-3.1-2.75-8.35-3.7-14.31-3.7-3,0-6.08-.24-7.75,2.39s-1.56,8-1.56,14.79V73.16c0,11.81-.12,13.12,1.32,15.63,1.31,2.26,5.37,2.38,9.66,2.86.83.12,1.07.36,1.07,1.55s-.24,1.67-1.07,1.67c-5-.36-11.69-.48-16.46-.48s-11.1.12-15.63.48c-.84,0-1.07-.36-1.07-1.55s.23-1.55,1.07-1.67c3.94-.48,7.4-.6,8.71-2.86,1.43-2.75,1.31-7.76,1.31-15.63Z"/><path class="cls-2" d="M450.21,73.16c0,5-.12,11.57,1.67,14.31,1.91,3.1,6.45,3.22,11.81,3.22,11.81,0,17.06-2,20.76-4.89s6.8-7.75,9.19-12c.35-.71.59-1.07,1.79-.71,1.43.48,1.43.95,1.19,1.67a126.66,126.66,0,0,1-6.2,20.16c-10.26-.36-20.4-.48-30.07-.48-10.14,0-21.11.12-31.25.48-.72,0-1-.36-1-1.55s.24-1.43,1-1.55c4.17-.48,7-.6,8.47-2.87C439,86.28,439,81,439,73.16V30.81c0-11.33,0-12.77-1.31-15.39-1.31-2.15-4.65-2.27-9.19-2.74-.83-.12-1.07-.24-1.07-1.44,0-1.55.24-1.9,1.07-1.9,9.9.59,20.52.59,30.3.59,9.43,0,19.21,0,29.47-.59.48,6.08,1.19,13.36,2,19.32.12.72-.12,1.19-1.08,1.43-1.43.24-1.79-.12-2-.83-1.43-4.3-4.65-9.55-7.75-11.81-3.22-2.87-8.35-3.82-17.77-3.82-4.54,0-8.59.24-10.26,3-1.43,2.39-1.2,7.88-1.2,14.2V47.87c1.91.12,4.78.12,7.4.12,7.52,0,13.24-.6,15.39-2.51,2.74-1.91,3.46-4.89,3.94-7.75.11-.72.23-1.08,1.43-1.08,1.55,0,1.67.36,1.67,1.08-.12,4.17-.24,8-.24,12.05,0,4.41.12,9.18.24,13.48,0,.83-.12,1.19-1.67,1.19-1.08,0-1.32-.48-1.43-1.19-.48-2.63-1.44-7-4.18-8.83-2.15-1.43-7.75-2.51-15.15-2.51-2.62,0-5.49,0-7.4.12Z"/><path class="cls-2" d="M526,73c0,11.81.12,13.48,1.32,15.86,1.43,2.39,4.77,2.39,9.18,2.87,1,.12,1.19.36,1.19,1.67,0,1.07-.23,1.43-1.19,1.43-5.13-.24-11-.48-15.86-.48s-10.86.24-15.51.48c-1,0-1.19-.36-1.19-1.43,0-1.31.23-1.55,1.19-1.67,4.05-.48,7.39-.6,8.71-2.87,1.43-2.62,1.43-8,1.43-15.86V30.69c0-11.33,0-12.65-1.31-15.15s-5.49-2.51-10-3c-.72-.12-1-.24-1-1.43,0-1.56.24-1.79,1-1.79,5.12.23,11.33.47,16.1.47,4.29,0,11.81-.59,19.56-.59,21.83,0,30.54,9.54,30.54,21.71,0,8.83-5.72,17.53-19.2,21.23,4.77,9.19,10.26,19,16.58,29,2.62,4.29,4.77,7.52,7.16,8.95,2,1.07,4.17,1.31,7.27,1.67.72.12,1,.36,1,1.55s-.36,1.55-1.08,1.55c-4.41-.24-7.87-.48-11.33-.48-3.1,0-5.37,0-9,.12a80,80,0,0,0-4.41-9.18c-5.85-10.5-11.57-20.88-17.3-31.38-1.43.12-3.58.24-5.25.24-3,0-5.72-.12-8.59-.36Zm0-23.26a66.24,66.24,0,0,0,8.59.59c16.94,0,23.27-8.47,23.27-18.73,0-11.69-6.45-18.37-20.76-18.37-3.94,0-8-.12-9.54,2.27S526,24.13,526,30.69Z"/><path class="cls-2" d="M601.83,22l.48,51.3c.12,7.51.6,13,2.15,15.39s5.13,2.74,9.06,3.22c.84,0,1,.24,1,1.43s-.24,1.43-1,1.43c-4.77-.24-9.42-.36-13.71-.36s-9.79.12-13.84.36c-1,0-1.19-.24-1.19-1.31s.23-1.43,1.07-1.55c3.58-.48,6.68-.84,8.23-3.34s2.27-8,2.39-15.27l.71-42.59c.12-7.52-.36-12.17-1.91-14.43s-5.48-3-9.78-3.46c-1-.12-1.19-.36-1.19-1.56,0-1.55.24-1.9,1.19-1.9,4.06.12,8.47.35,11.45.35,3.22,0,6.21,0,11.93-.12A158.4,158.4,0,0,0,618.06,24l27.2,39.84c4,5.85,7.39,10.86,11.09,16.7V65.76l-.12-35.07c0-6.8-.83-12.41-2.38-14.91s-5-2.63-8.83-3.1c-1-.12-1.19-.24-1.19-1.55,0-1.56.23-1.79,1.07-1.79,4.41.23,9.19.47,13.48.47s9.66-.24,13.48-.47c.95,0,1.19.23,1.19,1.79,0,1.19-.24,1.43-1.19,1.55-3.58.47-6.56.71-8,3.1-1.55,2.62-2.15,8.23-2.27,14.91l-.72,42.59c-.11,8,0,13.83.24,20.16-5.84,3.22-6.08,3.34-6.44,3.34a1.21,1.21,0,0,1-.95-.6C650,90.1,647.29,86,640.13,75.66L603.27,22Z"/><path class="cls-2" d="M722.32,61.82c-4.05-.23-9.18-.47-13.72-.47-4.89,0-9.66.24-14.91.47L688.92,75c-2.51,6.8-3,10.85-1.91,13.48,1.07,2.38,5.13,2.86,9.54,3.34.72.12,1.08.36,1.08,1.55s-.24,1.55-1.2,1.55c-4.41-.24-10.25-.36-14.55-.36s-8.35,0-12.17.36c-1,0-1.19-.24-1.19-1.55s.24-1.43,1.19-1.55a11,11,0,0,0,6.8-3.1c2.27-2.39,4.42-7.28,7.16-14.2l14.2-37.82c5.84-15.86,7-19.2,8.82-25.29l7.64-3.69a1.15,1.15,0,0,1,1.31.95c2.27,7.4,4.18,13.36,9.42,28.63l13.48,38.17c2.39,6.8,4.06,11,5.85,13.37s4.06,2.62,8.35,3c1.07.12,1.31.36,1.31,1.55s-.24,1.55-1.31,1.55c-4.77-.24-11.21-.36-16-.36-4.54,0-10.86.12-15.63.36-.84,0-1.08-.24-1.08-1.55s.24-1.43,1.08-1.55c3.93-.36,7.75-.6,8.59-3,.95-2.63,0-6-2.27-12.29ZM714,37.37c-2.74-7.75-4.06-11.93-5.61-16.34-1.55,4.41-3.1,8.7-5.84,16.22l-7.16,19.8c4.18.24,8.83.24,13.24.24,3.94,0,8.47,0,12.17-.24Z"/><path class="cls-2" d="M780.3,30.81c0-10.86-.12-12.65-1.32-15-1.19-2.15-4.65-2.15-7.63-2.15-5.49,0-10.74.95-14,3.7-3.46,2.5-6.44,8.11-8,12.29-.24.71-.6,1.07-1.79.83s-1.31-.6-1.31-1.43c.83-6,1.67-13.6,2.14-19.68,13.13.59,25.3.59,37.58.59s24.82,0,37.94-.59c.48,6.08,1.31,13.71,2,19.68,0,.83-.12,1.19-1.2,1.43-1.43.24-1.67-.12-1.91-.83-1.43-4.18-4.29-9.67-7.87-12.29-3.1-2.75-8.35-3.7-14.31-3.7-3,0-6.09-.24-7.76,2.39s-1.55,8-1.55,14.79V73.16c0,11.81-.12,13.12,1.31,15.63,1.32,2.26,5.37,2.38,9.67,2.86.83.12,1.07.36,1.07,1.55s-.24,1.67-1.07,1.67c-5-.36-11.69-.48-16.47-.48s-11.09.12-15.62.48c-.84,0-1.08-.36-1.08-1.55s.24-1.55,1.08-1.67c3.93-.48,7.39-.6,8.7-2.86C780.42,86,780.3,81,780.3,73.16Z"/><path class="cls-2" d="M856.4,73.16c0,11.81-.12,13.48,1.32,15.74s4.89,2.39,9.42,2.87c.84.12,1.07.36,1.07,1.55S868,94.87,867,94.87c-5.13-.24-11.33-.48-16.34-.48-4.65,0-10.74.24-15.39.48-.72,0-.95-.36-.95-1.55s.23-1.43.95-1.55c4.06-.48,7.16-.48,8.59-2.87,1.67-2.62,1.55-7.75,1.55-15.74V30.81c0-11.33,0-12.65-1.43-15.27-1.31-2.27-4.77-2.39-9.31-2.86-.71-.12-1-.24-1-1.55s.24-1.79,1-1.79c5,.35,11.34.71,16,.71,5,0,11.09-.36,15.86-.71.84,0,1.08.35,1.08,1.9,0,1.2-.36,1.32-1.08,1.44-4.17.47-7.27.59-8.7,2.86-1.56,2.74-1.44,8-1.44,15.27Z"/><path class="cls-2" d="M967.35,51.8c0,26-18.73,45-44.26,45S879,77.81,879,52,897.56,7.43,923.09,7.43,967.35,25.8,967.35,51.8Zm-75.28,0c0,24.82,12.53,40.8,31,40.8s31-16,31-40.44c0-24.69-12.88-40.68-31-40.68S892.07,27.71,892.07,51.8Z"/><path class="cls-2" d="M991.08,22l.48,51.3c.12,7.51.6,13,2.15,15.39s5.13,2.74,9.06,3.22c.84,0,1,.24,1,1.43s-.24,1.43-1,1.43c-4.77-.24-9.42-.36-13.71-.36s-9.79.12-13.84.36c-1,0-1.2-.24-1.2-1.31s.24-1.43,1.08-1.55c3.58-.48,6.68-.84,8.23-3.34s2.27-8,2.39-15.27l.71-42.59c.12-7.52-.36-12.17-1.91-14.43s-5.49-3-9.78-3.46c-1-.12-1.19-.36-1.19-1.56,0-1.55.24-1.9,1.19-1.9,4.06.12,8.47.35,11.45.35,3.22,0,6.21,0,11.93-.12A156.24,156.24,0,0,0,1007.31,24l27.2,39.84c4,5.85,7.39,10.86,11.09,16.7V65.76l-.12-35.07c0-6.8-.83-12.41-2.38-14.91s-5-2.63-8.83-3.1c-1-.12-1.2-.24-1.2-1.55,0-1.56.24-1.79,1.08-1.79,4.41.23,9.18.47,13.48.47s9.66-.24,13.48-.47c1,0,1.19.23,1.19,1.79,0,1.19-.24,1.43-1.19,1.55-3.58.47-6.56.71-8,3.1-1.56,2.62-2.15,8.23-2.27,14.91l-.72,42.59c-.12,8,0,13.83.24,20.16-5.84,3.22-6.08,3.34-6.44,3.34a1.19,1.19,0,0,1-1-.6c-3.7-6.08-6.45-10.14-13.6-20.52L992.52,22Z"/><path class="cls-2" d="M1118.73,61.82c-4.06-.23-9.19-.47-13.72-.47-4.89,0-9.66.24-14.91.47L1085.33,75c-2.51,6.8-3,10.85-1.91,13.48,1.07,2.38,5.13,2.86,9.54,3.34.72.12,1.07.36,1.07,1.55s-.24,1.55-1.19,1.55c-4.41-.24-10.26-.36-14.55-.36s-8.35,0-12.17.36c-.95,0-1.19-.24-1.19-1.55s.24-1.43,1.19-1.55a11,11,0,0,0,6.8-3.1c2.27-2.39,4.41-7.28,7.16-14.2l14.19-37.82c5.85-15.86,7-19.2,8.83-25.29l7.63-3.69a1.16,1.16,0,0,1,1.32.95c2.26,7.4,4.17,13.36,9.42,28.63L1135,75.42c2.39,6.8,4.06,11,5.85,13.37s4,2.62,8.35,3c1.07.12,1.31.36,1.31,1.55s-.24,1.55-1.31,1.55c-4.77-.24-11.22-.36-16-.36-4.53,0-10.85.12-15.63.36-.83,0-1.07-.24-1.07-1.55s.24-1.43,1.07-1.55c3.94-.36,7.76-.6,8.59-3,1-2.63,0-6-2.26-12.29Zm-8.35-24.45c-2.75-7.75-4.06-11.93-5.61-16.34-1.55,4.41-3.1,8.7-5.84,16.22l-7.16,19.8c4.17.24,8.83.24,13.24.24,3.93,0,8.47,0,12.17-.24Z"/><path class="cls-2" d="M1183,73.16c0,5.13-.12,11.57,1.67,14.31,1.91,3.1,6.2,3.22,11.57,3.22,11.93,0,17.06-2.38,20.75-5s6.57-7.63,9-11.93c.36-.83.6-1.07,1.91-.71s1.43.95,1.19,1.67a155.8,155.8,0,0,1-6.2,20.16c-10.38-.36-20.52-.48-30.18-.48-10,0-21,.12-31.14.48-.71,0-1-.36-1-1.55s.24-1.43,1-1.55c4.18-.48,7.4-.6,8.83-2.87,1.55-2.62,1.43-7.87,1.43-15.74V30.81c0-11.33,0-12.77-1.31-15.27-1.31-2.27-4.65-2.39-9.19-2.86-.83-.12-1.07-.24-1.07-1.44,0-1.55.24-1.9,1.07-1.9,4.9.35,11,.71,16,.71,4.77,0,11-.36,15.75-.71,1,0,1.19.35,1.19,1.9,0,1.2-.24,1.32-1.19,1.44-4.06.47-7.28.59-8.59,2.86-1.43,2.62-1.43,8-1.43,15.27Z"/><path class="cls-2" d="M1326.72,85.24h-.27v2.51h.22c.44,0,.53-.22.53-.54V85.66C1327.2,85.33,1327,85.24,1326.72,85.24Z"/><path class="cls-2" d="M1345.61,85.06c-.25,0-.37.1-.37.54v5.8c0,.42.12.52.37.52s.39-.1.39-.52V85.6C1346,85.16,1345.87,85.06,1345.61,85.06Z"/><polygon class="cls-2" points="1335.63 85.78 1335.34 89.33 1335.98 89.33 1335.73 85.78 1335.63 85.78"/><polygon class="cls-2" points="1354.44 85.78 1354.14 89.33 1354.78 89.33 1354.53 85.78 1354.44 85.78"/><path class="cls-2" d="M1368.16,85.06c-.26,0-.39.1-.39.54v5.8c0,.42.13.52.39.52s.36-.1.36-.52V85.6C1368.52,85.16,1368.39,85.06,1368.16,85.06Z"/><path class="cls-2" d="M1382.84,85.24h-.29v6.52h.29c.33,0,.46-.09.46-.64V85.87C1383.3,85.31,1383.17,85.24,1382.84,85.24Z"/><path class="cls-2" d="M1337.12,43.16h.14c.25,0,.34.42.34.42s.08,0-.09.26a3,3,0,0,1-.66.6l-.33.59s-.16.34-.41.25-.5.35-.5.35l-.17.33-.5.85v.84l-.16.86-.25.51-.07,1.19.66,1.28-.34.92a1.88,1.88,0,0,1-.25.52c-.15.24,0,.84,0,.84v.6l-.07.51.15.68.17.34s.74-.27.91-.59a9.94,9.94,0,0,1,1.08-1.27l.66-.1.34-1,.57-.35.66-.67.59-.34.57.08.83-1.1.51-.93.32-.19.18-.08.81-.33s.08-.51.34-.6a12.7,12.7,0,0,0,1.24-.59s.58-.59.49-.85a3.46,3.46,0,0,1,0-.93s-.24-.6-.49-.68-.4-.67-.4-.67l-.35-.69.26-.51s1.07-.26,1.32,0,1.16.26,1.16.26l.83-.18s-.08-.08.41.09a13.34,13.34,0,0,0,1.5.34,7.69,7.69,0,0,0,1.74-.17,2.71,2.71,0,0,1,.9-.17h.42l1-.09.25.43-.25.93s-.33.6-.58.6a7.79,7.79,0,0,0-1,.17s-1,0-1.08.34-1,.67-1,.67a2.07,2.07,0,0,1-.5.6c-.23.16-1.23.68-1.23.68l-.83.93-.25.6L1346,50l-.57.18a1.51,1.51,0,0,0-.67.42c-.17.25-.91.59-1.09.85a4.92,4.92,0,0,1-.83.76s-.33.6-.66.68a3.21,3.21,0,0,0-.9.68s-.18.34-.42.42a2.5,2.5,0,0,0-.59.43,3.21,3.21,0,0,1-.65.75c-.26.19-.17.78-.5.94s0,.85,0,.85.5,1.11,1,1,.76.61.76.61l.74.84h.58l.25.93.65.85s.77,1.2,1.11,1.2.72.5.72.5l.6.67.57.43a7.78,7.78,0,0,1,.41.85,2,2,0,0,0,.75.94,4.62,4.62,0,0,1,.66.41s.51.52.83.34.42.26.42.26l.83.68.14.43v.59l.44.6a3.34,3.34,0,0,0,.91.59,9,9,0,0,1,1.4.85l.58.51v.43l-.25.25s-2.82.24-3.31.16a11.76,11.76,0,0,1-1.41-.33l-1.16-.26h-.49l-.75.26-.83-.08-1,.08-.06-1,.48-.77-.08-.59s0-.33-.66-.68a3.08,3.08,0,0,1-1.09-1.26l-1.4-1.11s-.66-1-.91-1-.51-.51-.51-.51l-.5-.6-.49-.17-.41-.67-.5-.6-.32-.26v-.42l-.42-.76-.91-.35-.58-.93-.92.17a.43.43,0,0,0-.41.34c-.07.33-.25,1.36-.25,1.36v1.37l.18,1.18a2.44,2.44,0,0,0-.18,1,2.68,2.68,0,0,1,.1.67l-.1.94a3.9,3.9,0,0,1,.58,1.1,3.27,3.27,0,0,1,0,.94l.42.41.5.27.66.75.49.69.17.51-.58.17a5.15,5.15,0,0,1-1.4-.08c-.74-.17-1.24-.26-1.24-.26a2.92,2.92,0,0,1-1.09.09,3.3,3.3,0,0,0-1,0,2.79,2.79,0,0,0-.66.08,3.46,3.46,0,0,1-1,0s-.75.52-1.09.27a3,3,0,0,0-.91-.44v-.52s.84-.83,1.08-.76.26-.77.26-.77l.41-.67.57-.85-.4-2.2.34-.43-.51-.59.33-.94-.08-2.05.16-.93-.41-.67.17-1-.17-2-.16-2.37c.9-3.23.16-3.57.16-3.57v-.52l.17-1-.25-.92.41-.51h0l-12.43,8.69a6.47,6.47,0,0,0-.15.91c0,.34.52.76.52,1.18a3.84,3.84,0,0,1-.11,1.45,2.58,2.58,0,0,0,0,1.35,3.94,3.94,0,0,1,.11,1.12v1.19l.15.68-.15.51.23.68.09.68-.17,1-.15.94.32.68-.17.51-.35.75.35.35v.42l.25.52.09.84.24.51v.52l.24.33.09.6.58.75.16.52.34.42.42.52.58.5.66.09.32.26.75.15a1,1,0,0,1,.59.35c.15.26.41.85.41.85l-.17.67s-.09.35-.34.35h-.91l-.57-.09-.74.09-1.16-.42-1.08-.35s-.84-.58-1.16-.84a7.13,7.13,0,0,1-.93-1.11l-.73-.84-.91-1.2-.17-.77-.51-.42.26-1-.9-.67-.17-.68-.58-1.11-.26-1.19.09-.59-.34-.25-.24-1,.09-.42-.25-.67.16-.68a4.06,4.06,0,0,0-.33-.86c-.17-.25.08-1.19.08-1.19l-.18-.76-.23-.51a1,1,0,0,0,.16-.69,2.92,2.92,0,0,0-.3-.65L1257,99.19h137.89V2.76Zm-25.2,49.62h-1.23V84.21h1.23Zm5,0h-1.81l-.57-4.29c-.19-1.06-.27-2-.38-3h0c0,.38,0,.76,0,1.11v6.21h-1V84.21H1315l.35,2.46a43.93,43.93,0,0,1,.57,4.85h0v-.45c0-.84,0-1.67,0-2.5V84.21h1Zm4-7.45h-1.06v7.45h-1.21V85.33h-1.07V84.21H1321Zm3.54,7.45h-2.75V84.21h2.73v1.12H1323v2.2h1.44v1.11H1323v3h1.53Zm2.83,0a17.17,17.17,0,0,1-.15-3.28c0-.51-.2-.72-.75-.7v4h-1.22V84.21h1.61c1,0,1.58.36,1.58,1.47v1.21c0,.64-.19,1.17-1.21,1.3v0c.53.06,1.11.25,1.16,1,.08,1.14,0,2.35.19,3.53Zm5.79,0h-1.81l-.56-4.29a29.78,29.78,0,0,1-.37-3h-.05c0,.38,0,.76,0,1.11v6.21h-1V84.21h1.83l.34,2.46a46.52,46.52,0,0,1,.59,4.85h0v-.45c0-.84,0-1.67,0-2.5V84.21h1Zm3.18,0-.21-2.32h-.87l-.28,2.32h-1.1l.93-8.57h1.83l.93,8.57Zm4.47-7.45h-1.08v7.45h-1.2V85.33h-1.1V84.21h3.38Zm2,7.45h-1.22V84.21h1.22Zm4.44-1.27A1.41,1.41,0,0,1,1345.6,93a1.39,1.39,0,0,1-1.58-1.44v-6a1.39,1.39,0,0,1,1.58-1.43c.76,0,1.61.32,1.61,1.43Zm4.73,1.27h-1.81l-.57-4.29c-.2-1.06-.27-2-.37-3h0c0,.38,0,.76,0,1.11v6.21h-1V84.21H1350l.34,2.46a46.49,46.49,0,0,1,.58,4.85h0v-.45c0-.84,0-1.67,0-2.5V84.21h1Zm3.18,0-.23-2.32H1354l-.27,2.32h-1.11l.94-8.57h1.83l.92,8.57Zm1.12-40.53-.42.09-.48-.25.07-.77.17-.69s.07-.25.41-.17.42-.32.42-.32l.23-.35-.31-.35h-.51l-.41-.84-.25-1a5.83,5.83,0,0,0,.1-.86,2.4,2.4,0,0,1,.48-.94,1.62,1.62,0,0,1,.67-.33c.23,0,1,.09,1,.09l.92-.17a2.42,2.42,0,0,0,.83.41c.24,0,.58.53.58.53l.32,1.34-.09,1-.4.51-.33.24v.7l-.68.59s-1,.68-1.07,1-.74.42-.74.42Zm3.59,40.53h-2.77V84.21h1.23v7.45h1.54Zm5.79-5.44h-1.22V85.6c0-.44-.12-.54-.37-.54s-.37.1-.37.54v5.8c0,.42.12.52.37.52s.37-.1.37-.52V89.54h1.22v2a1.6,1.6,0,0,1-3.19,0v-6a1.4,1.4,0,0,1,1.59-1.43c.76,0,1.6.32,1.6,1.43Zm4.13,4.17a1.41,1.41,0,0,1-1.61,1.44,1.39,1.39,0,0,1-1.58-1.44v-6a1.39,1.39,0,0,1,1.58-1.43c.76,0,1.61.32,1.61,1.43Zm-.24-21.6-.75,1a3,3,0,0,1-.67.52,5.63,5.63,0,0,0-.91.58,4.66,4.66,0,0,0-.92.09c-.32.09-1.15.25-1.15.25l-.92-.08-1.08-.08a.89.89,0,0,0-.65-.27,1.76,1.76,0,0,0-.84.27,3.85,3.85,0,0,1-.49.33l-.66.34-.42-.25-.32-.77.41-.84.16-.94-.34-.77V67.63l1,.16.57.6.08,1,.84.42a6.28,6.28,0,0,1,.75.5,6.88,6.88,0,0,1,1.15.35,7.77,7.77,0,0,0,2.15-.26s.59-.09.67-.51.25-1.36.25-1.36,0-1.19-.5-1.52-.91-.69-.91-.69l-2.15-.58-1.07-.6-.1-.26-.41-.08-.5-.34-.66-1-.66-.85-.58-.42.25-.25.08-.36-.41-.67.33-.59-.25-.77.33-.42.25-.5V58.2l.33-.43.74-.85h.42l.74.09.25-.51,1.67-.26,1.64.26h.34l.75.6h.57l.25-.43.24-.34.84.17.41.6v3.39l-.32.6-.84-.18-.17-.51-.16-.33-.58-.52.17-.42-.66-.6-.84-.5s-.57-.6-.81-.51a8.66,8.66,0,0,1-1,.16l-1,.43a3.23,3.23,0,0,0-.43.93,2,2,0,0,0,0,1.36,9.35,9.35,0,0,0,1,1.18l1,.69v.43l.43-.17,1.06.25s1.41.51,1.58.85a3.58,3.58,0,0,0,.9.85l.59,1.53a3.19,3.19,0,0,1,.5,1.19c0,.43.08,1.52.08,1.52Zm2.07,22.87h-1.13V91.44h1.13Zm1,1.51h-.68l.38-2.85h1.14Zm5.06-1.51h-2.77V84.21H1376v7.45h1.56Zm3-7.45h-1.07v7.45h-1.2V85.33h-1.1V84.21h3.37Zm3.94,5.89a1.45,1.45,0,0,1-1.45,1.56h-1.74V84.21h1.47c1.21,0,1.72.43,1.72,1.94Zm.61-32.35-.31.94.31,1.7-.06.5a8.37,8.37,0,0,0-.43,1.88,10,10,0,0,1-.15,2l-.58.85.15.67-.15,1-.25.59-.25,1.1v.68l.08,1a3.42,3.42,0,0,1-.66,1c-.33.26,0,0-.25.26a.72.72,0,0,0-.25.43l.17.5s-.5.86-.66,1.1a3.59,3.59,0,0,1-.59.6l-.49.35.08.33-.4,1.11a4.5,4.5,0,0,0-.77.66.52.52,0,0,0,0,.52l-1,.68-.4-.08-.67.5a8.06,8.06,0,0,1-1,.09,5.33,5.33,0,0,1-1.07-.18,2.45,2.45,0,0,1-.33-.59c-.1-.25.24-.5.24-.5l.42-.69.91-.59.49-.42.09-.68.33-.77a3.63,3.63,0,0,1,.5-1.35,4.77,4.77,0,0,0,.09-2.38l-.09-.6.24-1.09.77-1.11-.52-.68.17-1.53.16-1.1-.41-1.27.41-1.79-.33-.77V60.65a2.32,2.32,0,0,1,.09-1c.16-.34.43-1.19.43-1.19l.07-1.1s.16-.25-.07-.94a16.24,16.24,0,0,1-.52-1.69l.25-.85.08-1.36-.24-1.27.08-.68.16-.34-.16-.93-.32-1.7.24-.77a1.89,1.89,0,0,0-.49-1.27c-.51-.42-.25-1.53-.25-1.53l-.34-1.79V41.3l-.25-.67-.57-.53V38.93l-.75-.26-.17-.59-.41-.69-.66-.26-.51-.32-.66-1,.16-.93,1.42.09h.58l1.16.51.83.24.74.61.74.51.75.51.49.76.6.93.58.68.32.59.09.6,1.15,1.1.67,1.61.42,1.7V47l-.17.77.25.42v.51l.33.43.31.84-.23.85.5.25a9.38,9.38,0,0,1-.09,1.45c-.08.26-.24.67-.24.67v1.46c0,.25.41,2.54.41,2.54Zm1.53,33.91h-1.16V91.44h1.16Z"/><path class="cls-2" d="M1317.88,56.16s-.41-.25-.26-.52a4.33,4.33,0,0,0,.32-1.51V52.34a6,6,0,0,1-.15-1.19,5.78,5.78,0,0,0,.15-.93l-.15-1.1.09-.69A11,11,0,0,1,1318,47a3.24,3.24,0,0,0-.15-1.27,4.31,4.31,0,0,1-.09-.93l.5-.34s-.35-1.1-.41-1.36a3.94,3.94,0,0,1,.26-1.45c.06-.34-.2-.68.06-1.1s.67-1.28.67-1.28a6.46,6.46,0,0,1,.41-.93,3.56,3.56,0,0,0,.33-.86l.33-.42.76-.24.58-.51.17-.44a.82.82,0,0,1,.23-.58.38.38,0,0,0,.17-.43l-.08-.68-.58-.25h-1.65l-.67.34-.5.25-.43.17-.23.68-.67.33-.4.17-.26.52-.34.51-.57.5-.84.86-.4.51v.67l-.09.34-.41.09-.4.85-.09.33-.08.78-.43.5-.08.34.17.34v.35l-.24.16-.25,1.28-.17,1a3.45,3.45,0,0,1-.24.78,5.6,5.6,0,0,0-.18,1.53,11.86,11.86,0,0,1-.08,1.34c-.08.6-.16,2.65-.16,2.65l.24.93-.24,1.11-.1,1.86a13.42,13.42,0,0,1,.18,2.71,7.62,7.62,0,0,0,0,2l.11.19,6.08-4.24A4.14,4.14,0,0,1,1317.88,56.16Z"/><path class="cls-2" d="M1336.36,43.09l-.58.08h-.66l-.74-.17-1,.09A4.36,4.36,0,0,0,1332,43a5,5,0,0,0-.92.35l-.58-.18-.32-.08-.33.26-.67.06-.9-.16-.66.34-.34.35.17.92.83.69.9.51.17,1.1.81.84,6.92-4.84C1336.82,43.15,1336.36,43.09,1336.36,43.09Z"/></svg>